<svg width="241" height="57" viewBox="0 0 241 57" fill="none" xmlns="http://www.w3.org/2000/svg">
<rect x="0.5" y="0.5" width="240" height="56" stroke="black"/>
<rect x="3" y="28" width="235" height="25" fill="black"/>
<path d="M29.5117 10.1631V7.87793H37.3252V10.1631H34.7148V18.7148H37.3252V21H29.5117V18.7148H32.1221V10.1631H29.5117ZM39.6016 7.87793H42.6953L44.2598 13.6348L45.8154 7.87793H48.9268V21H46.6943V10.4883L45.3057 16.2275H43.2402L41.834 10.4883V21H39.6016V7.87793ZM55.1055 10.251L53.8838 15.6211H56.3359L55.1055 10.251ZM53.5234 7.87793H56.6963L60.2383 21H57.6455L56.8369 17.7568H53.3652L52.5742 21H49.9814L53.5234 7.87793ZM67.6299 14.8037C67.8877 14.8564 68.1104 14.9795 68.2979 15.1729C68.4912 15.3604 68.7256 15.7295 69.001 16.2803L71.374 21H68.5264L66.9443 17.6865C66.8975 17.5928 66.8359 17.4639 66.7598 17.2998C66.2969 16.3096 65.752 15.8145 65.125 15.8145H64.2988V21H61.7061V7.87793H65.4502C67.1377 7.87793 68.3477 8.17676 69.0801 8.77441C69.8184 9.37207 70.1875 10.3447 70.1875 11.6924C70.1875 12.5947 69.9678 13.3125 69.5283 13.8457C69.0889 14.3789 68.4561 14.6982 67.6299 14.8037ZM64.2988 10.0576V13.6348H65.5205C66.2295 13.6348 66.7363 13.4971 67.041 13.2217C67.3516 12.9404 67.5068 12.4805 67.5068 11.8418C67.5068 11.2031 67.3545 10.7461 67.0498 10.4707C66.7451 10.1953 66.2354 10.0576 65.5205 10.0576H64.2988ZM76.7969 10.251L75.5752 15.6211H78.0273L76.7969 10.251ZM75.2148 7.87793H78.3877L81.9297 21H79.3369L78.5283 17.7568H75.0566L74.2656 21H71.6729L75.2148 7.87793ZM88.9434 21H86.3506V10.1455H83.0195V7.87793H92.2744V10.1455H88.9434V21ZM109.334 10.251L108.112 15.6211H110.564L109.334 10.251ZM107.752 7.87793H110.925L114.467 21H111.874L111.065 17.7568H107.594L106.803 21H104.21L107.752 7.87793ZM121.858 14.8037C122.116 14.8564 122.339 14.9795 122.526 15.1729C122.72 15.3604 122.954 15.7295 123.229 16.2803L125.603 21H122.755L121.173 17.6865C121.126 17.5928 121.064 17.4639 120.988 17.2998C120.525 16.3096 119.98 15.8145 119.354 15.8145H118.527V21H115.935V7.87793H119.679C121.366 7.87793 122.576 8.17676 123.309 8.77441C124.047 9.37207 124.416 10.3447 124.416 11.6924C124.416 12.5947 124.196 13.3125 123.757 13.8457C123.317 14.3789 122.685 14.6982 121.858 14.8037ZM118.527 10.0576V13.6348H119.749C120.458 13.6348 120.965 13.4971 121.27 13.2217C121.58 12.9404 121.735 12.4805 121.735 11.8418C121.735 11.2031 121.583 10.7461 121.278 10.4707C120.974 10.1953 120.464 10.0576 119.749 10.0576H118.527ZM135.112 20.6221C134.702 20.833 134.271 20.9912 133.82 21.0967C133.369 21.2021 132.895 21.2549 132.396 21.2549C130.627 21.2549 129.276 20.6719 128.345 19.5059C127.413 18.3398 126.947 16.6553 126.947 14.4521C126.947 12.2432 127.413 10.5557 128.345 9.38965C129.276 8.22363 130.627 7.64062 132.396 7.64062C132.895 7.64062 133.372 7.69336 133.829 7.79883C134.286 7.9043 134.714 8.0625 135.112 8.27344V11.1562C134.667 10.7461 134.233 10.4473 133.812 10.2598C133.396 10.0664 132.965 9.96973 132.52 9.96973C131.57 9.96973 130.853 10.3477 130.366 11.1035C129.886 11.8535 129.646 12.9697 129.646 14.4521C129.646 15.9287 129.886 17.0449 130.366 17.8008C130.853 18.5508 131.57 18.9258 132.52 18.9258C132.965 18.9258 133.396 18.832 133.812 18.6445C134.233 18.4512 134.667 18.1494 135.112 17.7393V20.6221ZM137.661 7.87793H140.254V12.8789H143.497V7.87793H146.09V21H143.497V15.1641H140.254V21H137.661V7.87793ZM148.814 10.1631V7.87793H156.628V10.1631H154.018V18.7148H156.628V21H148.814V18.7148H151.425V10.1631H148.814ZM164.863 21H162.271V10.1455H158.939V7.87793H168.194V10.1455H164.863V21ZM178.645 21H170.471V7.87793H178.645V10.1631H173.063V12.9932H178.117V15.2783H173.063V18.7148H178.645V21ZM189.341 20.6221C188.931 20.833 188.5 20.9912 188.049 21.0967C187.598 21.2021 187.123 21.2549 186.625 21.2549C184.855 21.2549 183.505 20.6719 182.573 19.5059C181.642 18.3398 181.176 16.6553 181.176 14.4521C181.176 12.2432 181.642 10.5557 182.573 9.38965C183.505 8.22363 184.855 7.64062 186.625 7.64062C187.123 7.64062 187.601 7.69336 188.058 7.79883C188.515 7.9043 188.942 8.0625 189.341 8.27344V11.1562C188.896 10.7461 188.462 10.4473 188.04 10.2598C187.624 10.0664 187.193 9.96973 186.748 9.96973C185.799 9.96973 185.081 10.3477 184.595 11.1035C184.114 11.8535 183.874 12.9697 183.874 14.4521C183.874 15.9287 184.114 17.0449 184.595 17.8008C185.081 18.5508 185.799 18.9258 186.748 18.9258C187.193 18.9258 187.624 18.832 188.04 18.6445C188.462 18.4512 188.896 18.1494 189.341 17.7393V20.6221ZM197.4 21H194.808V10.1455H191.477V7.87793H200.731V10.1455H197.4V21ZM206.014 15.2432C204.707 14.7451 203.822 14.2236 203.359 13.6787C202.896 13.1279 202.665 12.3896 202.665 11.4639C202.665 10.2744 203.046 9.33984 203.808 8.66016C204.569 7.98047 205.615 7.64062 206.945 7.64062C207.549 7.64062 208.152 7.71094 208.756 7.85156C209.359 7.98633 209.957 8.18848 210.549 8.45801V10.9893C209.992 10.5967 209.427 10.2979 208.853 10.0928C208.278 9.8877 207.71 9.78516 207.147 9.78516C206.521 9.78516 206.04 9.91113 205.706 10.1631C205.372 10.415 205.205 10.7754 205.205 11.2441C205.205 11.6074 205.325 11.9092 205.565 12.1494C205.812 12.3838 206.321 12.6445 207.095 12.9316L208.211 13.3535C209.266 13.7402 210.042 14.2529 210.54 14.8916C211.038 15.5303 211.287 16.3359 211.287 17.3086C211.287 18.6328 210.895 19.623 210.109 20.2793C209.33 20.9297 208.149 21.2549 206.567 21.2549C205.917 21.2549 205.264 21.1758 204.607 21.0176C203.957 20.8652 203.327 20.6367 202.718 20.332V17.6514C203.409 18.1436 204.077 18.5098 204.722 18.75C205.372 18.9902 206.014 19.1104 206.646 19.1104C207.285 19.1104 207.78 18.9668 208.132 18.6797C208.483 18.3867 208.659 17.9795 208.659 17.458C208.659 17.0654 208.542 16.7227 208.308 16.4297C208.073 16.1309 207.733 15.8965 207.288 15.7266L206.014 15.2432Z" fill="black"/>
</svg>
